<?xml version="1.0" encoding="UTF-8" standalone="no"?>
<!-- Generator: Adobe Illustrator 18.1.0, SVG Export Plug-In . SVG Version: 6.00 Build 0)  -->
<svg id="Layer_1" xmlns="http://www.w3.org/2000/svg" xml:space="preserve" viewBox="-174.6 204 53 63" version="1.1" y="0px" x="0px" xmlns:xlink="http://www.w3.org/1999/xlink" enable-background="new -174.6 204 53 63">
<path d="m-125.9 224.8c-8.7-16.4-34.2-20-34.2-20s11.8 13.7-3.3 24.5c-9.5 6.8-13.3 15.7-9.2 25.4 3.1 7.4 9.7 10.4 16.8 11.6-1.8-3.7-2.3-9-0.9-14.4 0.1-0.6 0.3-1.1 0.5-1.7 2 3.2 5.3 5 8.5 4.2 4.4-1.1 6.9-6.6 5.7-12.3-0.3-1.3-0.7-2.5-1.3-3.5 0.2 0 0.3 0.1 0.5 0.1 5.5 1.6 8.1 10.2 5.9 19.1-0.7 2.9-1.9 5.4-3.2 7.5 9.4-3.1 15.6-11 17.3-18.1 1.8-7.4 0.4-15.9-3.1-22.4zm-0.8 21.2c-0.7 3-2.7 6.4-5.7 9.4 0.5-4 0.3-8-0.8-11.4-1.5-5-4.8-8-8.6-9.6-4.3-1.8-9.4-1.7-9.4-1.7l4.3 8.2c0.4 0.7 0.7 1.5 0.8 2.2 0.4 1.7 0.2 3.5-0.4 4.8-0.3 0.7-1 1.8-2.3 2.1-0.2 0.1-0.4 0.1-0.7 0.1-1.3 0-2.6-0.9-3.6-2.4l-4.5-7.2-2.6 8.3c-0.2 0.6-0.4 1.3-0.6 2-0.8 3.2-1.1 6.4-0.8 9.5-3.6-1.6-6.1-4-7.5-7.3-3.1-7.3-0.5-14 7.8-19.9 5.6-4 8.8-9 9.4-14.7 0.3-2.6 0-5-0.6-7.2 7.6 2.3 18.3 7 23 15.9 3.2 5.7 4.2 13 2.8 18.9z" fill="#D91E18"/>
</svg>
